HIERARCHY
ROOT Hips
{
	OFFSET 0.000000 0.000000 0.000000
	CHANNELS 6 Xposition Yposition Zposition Zrotation Yrotation Xrotation 
	JOINT LHipJoint
	{
		OFFSET 0.000000 0.000000 0.000000
		CHANNELS 3 Zrotation Yrotation Xrotation
		JOINT LeftUpLeg
		{
			OFFSET 1.363060 -1.794630 0.839290
			CHANNELS 3 Zrotation Yrotation Xrotation
			JOINT LeftLeg
			{
				OFFSET 2.448110 -6.726130 0.000000
				CHANNELS 3 Zrotation Yrotation Xrotation
				JOINT LeftFoot
				{
					OFFSET 2.562200 -7.039590 0.000000
					CHANNELS 3 Zrotation Yrotation Xrotation
					JOINT LeftToeBase
					{
						OFFSET 0.157640 -0.433110 2.322550
						CHANNELS 3 Zrotation Yrotation Xrotation
						End Site
						{
							OFFSET 0.000000 0.000000 0.000000
						}
					}
				}
			}
		}
	}
	JOINT RHipJoint
	{
		OFFSET 0.000000 0.000000 0.000000
		CHANNELS 3 Zrotation Yrotation Xrotation
		JOINT RightUpLeg
		{
			OFFSET -1.305520 -1.794630 0.839290
			CHANNELS 3 Zrotation Yrotation Xrotation
			JOINT RightLeg
			{
				OFFSET -2.542530 -6.985550 0.000000
				CHANNELS 3 Zrotation Yrotation Xrotation
				JOINT RightFoot
				{
					OFFSET -2.568260 -7.056230 0.000000
					CHANNELS 3 Zrotation Yrotation Xrotation
					JOINT RightToeBase
					{
						OFFSET -0.164730 -0.452590 2.363150
						CHANNELS 3 Zrotation Yrotation Xrotation
						End Site
						{
							OFFSET 0.000000 0.000000 0.000000
						}
					}
				}
			}
		}
	}
}
MOTION
Frames: 30
Frame Time: 0.008333
-5.090748 16.727944 -1.415300 11.885586 74.040835 32.306454 -8.311484 -0.856773 0.711951 -10.011878 -6.201869 -40.721532 -2.870972 -0.000996 10.584290 -0.566665 -3.737742 12.023098 -0.750900 -0.000000 -31.397300 10.875793 -0.870249 -2.767187 3.676946 -0.793317 -8.728762 2.897630 -1.848327 29.218838 1.342274 15.920729 -14.193959 -1.840400 0.000000 -42.794800
-4.983544 16.742936 -1.394216 12.947316 72.890170 33.338496 -8.146429 -0.717376 0.494446 -11.237688 -5.298477 -40.546228 -3.041920 0.004424 11.111492 -0.576395 -3.608589 11.374168 -0.655200 -0.000000 -30.697100 11.277592 -0.856612 -2.697160 2.289821 -1.219106 -10.032037 2.689486 -2.136248 31.465066 1.420985 16.522269 -13.010234 -1.707500 -0.000000 -47.015600
-4.882529 16.764944 -1.375149 13.668692 71.684040 34.039291 -7.975568 -0.585679 0.261824 -12.375145 -4.370421 -40.225494 -3.218915 -0.016099 11.378909 -0.585692 -3.497659 10.620950 -0.563500 0.000000 -30.098800 11.659592 -0.830848 -2.611070 0.976953 -1.464341 -11.415557 2.447624 -2.428715 33.775578 1.479145 16.994611 -11.563169 -1.451701 0.000000 -50.920000
-4.787101 16.792906 -1.358997 14.089133 70.423974 34.447872 -7.805506 -0.464061 0.022840 -13.399658 -3.445013 -39.744056 -3.395939 -0.065083 11.344607 -0.591621 -3.384480 9.858995 -0.475400 0.000000 -29.607900 12.016880 -0.792309 -2.511711 -0.253056 -1.535022 -12.864285 2.171617 -2.720019 36.120706 1.514305 17.352681 -9.831735 -1.062500 -0.000000 -54.750600
-4.696051 16.825619 -1.347711 14.148193 69.127173 34.510294 -7.657835 -0.358846 -0.221913 -14.275350 -2.477923 -39.149032 -3.565036 -0.134872 11.054789 -0.597655 -3.318431 9.145468 -0.409399 0.000000 -29.192600 12.327554 -0.747587 -2.393245 -1.331889 -1.397655 -14.350538 1.868887 -2.998263 38.465760 1.521513 17.589067 -7.872387 -0.551800 -0.000000 -57.929400
-4.608142 16.861635 -1.342008 13.897941 67.807047 34.278008 -7.541516 -0.271105 -0.466951 -14.996986 -1.469968 -38.461547 -3.720814 -0.221334 10.529448 -0.604000 -3.294896 8.543765 -0.365200 0.000000 -28.835500 12.586728 -0.698562 -2.257238 -2.246705 -1.074075 -15.855505 1.546238 -3.255329 40.781508 1.498860 17.714195 -5.719287 0.064899 0.000000 -60.511100
-4.522010 16.899388 -1.342123 13.402632 66.478776 33.815725 -7.460911 -0.200136 -0.707678 -15.571250 -0.427590 -37.705646 -3.859276 -0.319665 9.798738 -0.610556 -3.301386 8.098257 -0.339300 0.000000 -28.520000 12.793559 -0.645077 -2.107180 -2.996111 -0.596474 -17.360719 1.213854 -3.484465 43.043653 1.446298 17.736440 -3.441184 0.756200 -0.000000 -62.387100
-4.436289 16.937399 -1.348239 12.706992 65.165904 33.167229 -7.422475 -0.144604 -0.942283 -16.010833 0.663564 -36.925985 -3.978119 -0.421224 8.931026 -0.619528 -3.354133 7.818305 -0.335400 0.000000 -28.227701 12.944978 -0.589836 -1.945396 -3.566728 0.000834 -18.844722 0.883091 -3.679809 45.227746 1.365332 17.642064 -1.119837 1.480700 -0.000000 -63.550500
-4.349878 16.974389 -1.359754 11.883060 63.890398 32.401843 -7.424064 -0.101011 -1.167309 -16.339656 1.790953 -36.150239 -4.077269 -0.520478 7.978174 -0.630786 -3.445640 7.698960 -0.350301 -0.000000 -27.951900 13.045842 -0.532345 -1.778410 -3.970323 0.666285 -20.289324 0.564345 -3.839969 47.316528 1.260069 17.413892 1.155204 2.188100 0.000000 -64.057900
-4.261945 17.009207 -1.375718 10.999350 62.674893 31.582800 -7.461768 -0.064565 -1.378589 -16.585456 2.936572 -35.403622 -4.158265 -0.612559 6.995253 -0.643735 -3.570171 7.711871 -0.381000 0.000000 -27.690600 13.101910 -0.471812 -1.613697 -4.222973 1.345254 -21.677625 0.265424 -3.966105 49.299510 1.135827 17.022894 3.293733 2.823000 0.000000 -64.005700
-4.172013 17.041169 -1.395025 10.111828 61.544698 30.762301 -7.528563 -0.031690 -1.572962 -16.773515 4.074822 -34.706664 -4.223570 -0.694374 6.034324 -0.657568 -3.722122 7.812500 -0.424501 0.000000 -27.443300 13.120897 -0.407682 -1.460220 -4.341257 1.983918 -22.996553 -0.008772 -4.062217 51.169259 0.997697 16.431146 5.217696 3.332500 0.000000 -63.543000
-4.079963 17.069841 -1.416391 9.268519 60.521945 29.983697 -7.616344 0.001226 -1.746185 -16.925229 5.171011 -34.070869 -4.275760 -0.764588 5.138199 -0.670846 -3.890393 7.947933 -0.475800 0.000000 -27.212699 13.110821 -0.338674 -1.327075 -4.344341 2.533412 -24.236635 -0.256679 -4.133487 52.924100 0.849611 15.601223 6.863788 3.671400 0.000000 -62.817400
-3.986156 17.095103 -1.438582 8.506175 59.623565 29.277581 -7.717192 0.037293 -1.893172 -17.055387 6.185071 -33.498300 -4.316832 -0.823379 4.338559 -0.681787 -4.058858 8.063531 -0.527900 0.000000 -27.002500 13.079023 -0.263109 -1.222427 -4.251766 2.953861 -25.391732 -0.479181 -4.185226 54.566088 0.693595 14.503161 8.186767 3.808800 -0.000000 -61.948000
-3.891086 17.117113 -1.460508 7.843196 58.863237 28.659513 -7.823244 0.077352 -2.011071 -17.169814 7.080541 -32.986367 -4.348021 -0.871698 3.659521 -0.689117 -4.212888 8.110509 -0.573900 0.000000 -26.814600 13.032257 -0.179819 -1.153131 -4.077459 3.219398 -26.460082 -0.677951 -4.222730 56.096878 0.529484 13.119968 9.161576 3.732799 -0.000000 -61.017200
-3.795542 17.136282 -1.481292 7.285280 58.246708 28.132271 -7.928355 0.121164 -2.098366 -17.268044 7.829024 -32.528533 -4.369821 -0.910627 3.116938 -0.691841 -4.339164 8.051133 -0.607400 0.000000 -26.648200 12.975568 -0.088087 -1.123382 -3.832379 3.318871 -27.442446 -0.854740 -4.250353 57.517657 0.355585 11.454679 9.779434 3.452000 -0.000000 -60.043600
-3.700322 17.153082 -1.500290 6.826847 57.770133 27.690345 -8.027375 0.167014 -2.153836 -17.339323 8.400491 -32.107181 -4.380761 -0.942328 2.706316 -0.687980 -4.412659 7.867970 -0.620600 0.000000 -26.508300 12.912837 0.013028 -1.136059 -3.525577 3.255260 -28.341885 -1.010714 -4.271705 58.828157 0.169565 9.534509 10.046786 2.995000 -0.000000 -58.979700
-3.606302 17.168076 -1.517188 6.451792 57.421718 27.317523 -8.117630 0.212402 -2.179580 -17.372104 8.785575 -31.708658 -4.379473 -0.967801 2.422082 -0.676389 -4.419414 7.558596 -0.609900 -0.000000 -26.392000 12.846063 0.123130 -1.190368 -3.162650 3.045974 -29.163566 -1.146243 -4.289293 60.025326 -0.030410 7.410893 9.985044 2.407100 -0.000000 -57.749900
-3.514233 17.181771 -1.531873 6.136827 57.183283 26.991236 -8.198186 0.254601 -2.179576 -17.355787 8.991353 -31.322797 -4.364883 -0.987447 2.255900 -0.656398 -4.352549 7.134980 -0.575600 0.000000 -26.292400 12.776280 0.239809 -1.281583 -2.747478 2.719363 -29.913817 -1.261006 -4.304879 61.103645 -0.244581 5.155905 9.629837 1.744200 0.000001 -56.272900
-3.424685 17.194678 -1.544483 5.854671 57.028715 26.688749 -8.268783 0.290467 -2.159158 -17.278890 9.029979 -30.938378 -4.335370 -1.002039 2.186384 -0.626704 -4.200058 6.624927 -0.518500 0.000000 -26.206400 12.703887 0.360928 -1.404217 -2.284237 2.311547 -30.600800 -1.354520 -4.319478 62.055606 -0.470427 2.857244 9.028811 1.065000 0.000000 -54.482700
-3.338032 17.207188 -1.555238 5.577818 56.927687 26.386474 -8.330146 0.317660 -2.124740 -17.135888 8.926920 -30.548707 -4.290244 -1.012007 2.191490 -0.586538 -3.956206 6.063083 -0.441900 0.000000 -26.130300 12.629085 0.482943 -1.549867 -1.778060 1.862608 -31.233481 -1.426451 -4.333512 62.872744 -0.702225 0.609563 8.239816 0.423000 -0.000000 -52.360900
-3.254460 17.219566 -1.564472 5.281670 56.848506 26.063949 -8.383740 0.334966 -2.083806 -16.928800 8.720448 -30.153518 -4.230279 -1.017383 2.252006 -0.536039 -3.624399 5.484976 -0.351100 -0.000000 -26.060601 12.551982 0.601483 -1.708111 -1.235237 1.413042 -31.821266 -1.476906 -4.346775 63.546423 -0.931389 -1.496149 7.325547 -0.140400 0.000000 -49.946100
-3.173888 17.231992 -1.572503 4.945290 56.758383 25.706161 -8.431057 0.341835 -2.045479 -16.666380 8.457678 -29.758462 -4.157725 -1.017990 2.351437 -0.476263 -3.216235 4.921888 -0.252100 -0.000000 -25.995600 12.472737 0.712850 -1.868891 -0.662780 1.000684 -32.373541 -1.506509 -4.358565 64.068770 -1.147427 -3.380187 6.347945 -0.599400 0.000000 -47.321100
-3.096099 17.244482 -1.579616 4.558192 56.628511 25.303595 -8.474421 0.339807 -2.017499 -16.365956 8.194378 -29.373179 -4.076794 -1.013437 2.481877 -0.409660 -2.754576 4.396481 -0.151500 -0.000000 -25.934900 12.391717 0.812140 -2.019854 -0.069923 0.656427 -32.897902 -1.516292 -4.367881 64.434742 -1.339455 -4.980151 5.361612 -0.943800 -0.000001 -44.605099
-3.020670 17.257067 -1.586010 4.115488 56.434157 24.856260 -8.515309 0.330171 -2.008398 -16.047438 7.984352 -29.010662 -3.992632 -1.003556 2.638321 -0.339334 -2.266532 3.921062 -0.054600 -0.000000 -25.880600 12.309378 0.896641 -2.151629 0.534363 0.403647 -33.402752 -1.507329 -4.373707 64.640590 -1.497829 -6.254516 4.409140 -1.176500 0.000000 -41.917899
-2.947175 17.269580 -1.591792 3.625022 56.156473 24.370530 -8.555771 0.315687 -2.023647 -15.733476 7.877562 -28.681968 -3.911097 -0.988446 2.820417 -0.268933 -1.782625 3.496767 0.033800 0.000000 -25.835300 12.226026 0.963686 -2.254939 1.139128 0.255503 -33.892430 -1.480749 -4.374864 64.685777 -1.615308 -7.182647 3.516865 -1.308800 0.000000 -39.363300
-2.875067 17.281936 -1.596969 3.098643 55.784216 23.859859 -8.596713 0.298366 -2.067490 -15.443871 7.910727 -28.396957 -3.837613 -0.968664 3.028485 -0.201857 -1.330191 3.115987 0.110300 -0.000000 -25.802300 12.141998 1.012709 -2.324382 1.734662 0.215552 -34.371501 -1.437303 -4.370587 64.571217 -1.687963 -7.764537 2.696728 -1.356400 0.000000 -37.017000
-2.803903 17.293971 -1.601438 2.555245 55.313509 23.341368 -8.638805 0.280579 -2.140709 -15.195445 8.105878 -28.161580 -3.776795 -0.945114 3.263883 -0.140915 -0.931488 2.763657 0.172700 -0.000000 -25.783600 12.057398 1.043978 -2.356617 2.311285 0.277825 -34.842006 -1.377563 -4.360255 64.300422 -1.715360 -8.018573 1.946464 -1.336200 -0.000000 -34.923999
-2.733172 17.305599 -1.605056 2.012103 54.747825 22.833559 -8.681493 0.263601 -2.242462 -14.998587 8.466932 -27.978991 -3.731712 -0.918941 3.526656 -0.087874 -0.600516 2.421356 0.219600 0.000000 -25.779500 11.972196 1.059559 -2.352515 2.862592 0.428742 -35.306229 -1.301699 -4.343658 63.877106 -1.700520 -7.979696 1.255588 -1.265100 -0.000001 -33.105200
-2.662651 17.316666 -1.607645 1.489526 54.095952 22.352583 -8.724449 0.249406 -2.367873 -14.859020 8.981513 -27.845790 -3.703709 -0.891407 3.815454 -0.043244 -0.341297 2.070875 0.251501 0.000000 -25.788700 11.886040 1.061620 -2.314150 3.382501 0.648365 -35.763040 -1.210071 -4.320514 63.307575 -1.649389 -7.696111 0.608072 -1.158500 -0.000001 -31.563100
-2.592112 17.327150 -1.609049 1.001491 53.371215 21.910623 -8.766531 0.238846 -2.511246 -14.775515 9.622974 -27.755429 -3.692249 -0.863735 4.126232 -0.006387 -0.148763 1.698085 0.269900 0.000000 -25.808800 11.798516 1.053358 -2.246877 3.869163 0.913289 -36.211776 -1.102987 -4.290857 62.598172 -1.570211 -7.226075 -0.011861 -1.031199 0.000000 -30.288200
